<?xml version="1.0" standalone="no"?>
<!DOCTYPE svg PUBLIC "-//W3C//DTD SVG 20010904//EN"
 "http://www.w3.org/TR/2001/REC-SVG-20010904/DTD/svg10.dtd">
<svg version="1.0" xmlns="http://www.w3.org/2000/svg"
 width="875.000000pt" height="875.000000pt" viewBox="0 0 875.000000 875.000000"
 preserveAspectRatio="xMidYMid meet">
<metadata>
Created by potrace 1.14, written by Peter Selinger 2001-2017
</metadata>
<g transform="translate(0.000000,875.000000) scale(0.100000,-0.100000)"
fill="#000000" stroke="none">
<path d="M6544 8634 c-65 -44 -1840 -1832 -1894 -1908 -27 -37 -59 -94 -72
-125 l-22 -56 -1 -2060 c-2 -2213 -4 -2107 48 -2164 50 -54 -69 -51 2053 -51
2166 0 1997 -5 2060 61 l29 30 3 1998 2 1998 -22 33 c-13 19 -39 43 -58 54
-34 20 -47 21 -1022 21 l-988 -1 -1 36 c0 19 0 503 -1 1075 0 571 -4 1049 -9
1062 -12 32 -56 30 -105 -3z"/>
<path d="M100 6453 c-19 -7 -36 -13 -37 -13 -2 0 -16 -19 -33 -42 l-30 -41 0
-1979 c0 -2186 -5 -2020 66 -2074 l37 -29 999 -3 998 -2 0 -1066 c0 -715 3
-1072 10 -1085 14 -25 46 -24 90 2 49 30 1859 1843 1899 1902 18 27 47 78 64
115 l31 67 1 2050 c1 1128 -2 2065 -6 2084 -10 44 -37 81 -80 106 -33 19 -62
19 -2003 20 -1538 0 -1978 -3 -2006 -12z"/>
</g>
</svg>
